<svg width="32" height="32" viewBox="0 0 32 32" fill="none" xmlns="http://www.w3.org/2000/svg">
<path fill-rule="evenodd" clip-rule="evenodd" d="M32 30.234C32 31.2094 31.2091 32.0001 30.2339 32.0001L22.0794 32.0001V19.608H26.239L26.8618 14.7786H22.0794V11.6951C22.0794 10.2969 22.4678 9.344 24.4729 9.344L27.0303 9.34287V5.0235C26.5878 4.96462 25.0698 4.83312 23.3038 4.83312C19.6165 4.83312 17.0923 7.08375 17.0923 11.217V14.7786H12.922V19.608H17.0923V32.0001L1.76612 32.0001C0.7905 32.0001 0 31.2094 0 30.234V1.76612C0 0.790625 0.7905 0 1.76612 0H30.2339C31.2091 0 32 0.790625 32 1.76612V30.234Z" fill="white"/>
</svg>
