<svg width="32" height="32" viewBox="0 0 32 32" fill="none" xmlns="http://www.w3.org/2000/svg">
<path d="M7.77143 0C3.48928 0 0 3.48928 0 7.77143V24.2286C0 28.5107 3.48928 32 7.77143 32H24.2286C28.5107 32 32 28.5107 32 24.2286V7.77143C32 3.48928 28.5107 0 24.2286 0H7.77143ZM7.77143 2.74286H24.2286C27.0375 2.74286 29.2571 4.96251 29.2571 7.77143V24.2286C29.2571 27.0375 27.0375 29.2571 24.2286 29.2571H7.77143C4.96251 29.2571 2.74286 27.0375 2.74286 24.2286V7.77143C2.74286 4.96251 4.96251 2.74286 7.77143 2.74286ZM25.1429 5.48571C24.1322 5.48571 23.3143 6.30359 23.3143 7.31429C23.3143 8.32498 24.1322 9.14286 25.1429 9.14286C26.1536 9.14286 26.9714 8.32498 26.9714 7.31429C26.9714 6.30359 26.1536 5.48571 25.1429 5.48571ZM16 8.22857C11.725 8.22857 8.22857 11.725 8.22857 16C8.22857 20.275 11.725 23.7714 16 23.7714C20.275 23.7714 23.7714 20.275 23.7714 16C23.7714 11.725 20.275 8.22857 16 8.22857ZM16 10.9714C18.7929 10.9714 21.0286 13.2071 21.0286 16C21.0286 18.7929 18.7929 21.0286 16 21.0286C13.2071 21.0286 10.9714 18.7929 10.9714 16C10.9714 13.2071 13.2071 10.9714 16 10.9714Z" fill="white"/>
</svg>
