<svg width="32" height="26" viewBox="0 0 32 26" fill="none" xmlns="http://www.w3.org/2000/svg">
<path fill-rule="evenodd" clip-rule="evenodd" d="M28.2 4C29.6 3.2 30.6 2 31 0.4C29.8 1.2 28.4 1.6 26.8 2C25.6 0.8 23.8 0 22 0C18.6 0 15.6 3 15.6 6.6C15.6 7.2 15.6 7.6 15.8 8C10.4 7.8 5.4 5.2 2.2 1.2C1.6 2.2 1.4 3.2 1.4 4.6C1.4 6.8 2.6 8.8 4.4 10C3.4 10 2.4 9.6 1.4 9.2C1.4 12.4 3.6 15 6.6 15.6C6 15.8 5.4 15.8 4.8 15.8C4.4 15.8 4 15.8 3.6 15.6C4.4 18.2 6.8 20.2 9.8 20.2C7.6 22 4.8 23 1.6 23H0C3 24.8 6.4 26 10 26C22 26 28.6 16 28.6 7.4V6.6C30 5.6 31.2 4.4 32 3C30.8 3.6 29.6 3.8 28.2 4Z" fill="white"/>
</svg>
